<?xml version="1.0" encoding="UTF-8"?>
<svg version="1.1" xmlns="http://www.w3.org/2000/svg" width="512" height="512">
<path d="M0 0 C7.875 6.75 7.875 6.75 11.4220953 10.29904747 C12.63432259 11.50828819 12.63432259 11.50828819 13.87103933 12.74195802 C14.73778565 13.61161718 15.60453197 14.48127635 16.49754333 15.37728882 C17.44382612 16.32313487 18.39032889 17.26876087 19.33703095 18.21418726 C21.92302039 20.79795173 24.50589998 23.38480515 27.08826101 25.97219539 C29.8791215 28.76738899 32.67288652 31.55967695 35.46629333 34.35232544 C40.30075859 39.18626727 45.13339483 44.02203134 49.96478081 48.85905075 C56.95008971 55.85249925 63.9381702 62.84317289 70.92692233 69.83318026 C82.26663477 81.17507936 93.60411393 92.51920813 104.94018555 103.86474609 C115.94975355 114.88349822 126.96037516 125.90119576 137.97241211 136.91748047 C138.65160804 137.59693912 139.33080396 138.27639777 140.03058159 138.97644608 C143.43803817 142.38520773 146.84551544 145.7939487 150.253003 149.2026794 C178.50521024 177.46524721 206.75379186 205.73143663 235 234 C233.5437653 237.34665177 231.70701221 239.54267198 229.13346767 242.1154213 C228.3219545 242.93153326 227.51044133 243.74764523 226.67433685 244.58848786 C225.77814465 245.4795365 224.88195245 246.37058514 223.95860291 247.28863525 C223.00020999 248.24861624 222.04225511 249.20903471 221.0847016 250.16985297 C218.45047642 252.81049852 215.8100392 255.44485541 213.16855419 258.0782361 C210.32172537 260.91849317 207.48065776 263.7645028 204.63887024 266.60980225 C199.07093755 272.18277949 193.4976739 277.75039611 187.92259686 283.31622532 C181.43594338 289.79250438 174.95451049 296.27399761 168.47328586 302.7557089 C156.91395485 314.31554067 145.34979723 325.87053201 133.78295898 337.42285156 C122.54723138 348.64448329 111.31502052 359.86961959 100.08666992 371.09863281 C99.3947778 371.79056489 98.70288567 372.48249697 97.99002712 373.19539669 C97.29935532 373.88610885 96.60868352 374.576821 95.89708227 375.28846383 C83.12815261 388.05808243 70.35593962 400.8244125 57.58218671 413.58920617 C53.05738655 418.11098413 48.53356895 422.63374369 44.01005363 427.15680695 C38.50311004 432.66307005 32.99429014 438.16744809 27.48308342 443.66944435 C24.66860036 446.479295 21.85492622 449.28994335 19.04338455 452.10273743 C16.47408861 454.67312241 13.90252293 457.24121276 11.32905395 459.80741951 C9.94834059 461.18543839 8.57009824 462.56593171 7.19191974 463.94648576 C6.38301432 464.75216674 5.5741089 465.55784771 4.74069118 466.38794327 C4.03739412 467.09053591 3.33409705 467.79312855 2.60948795 468.51701188 C1 470 1 470 0 470 C0 427.76 0 385.52 0 342 C-91.41 342 -182.82 342 -277 342 C-277 271.38 -277 200.76 -277 128 C-185.59 128 -94.18 128 0 128 C0 85.76 0 43.52 0 0 Z M43 105 C43 126.78 43 148.56 43 171 C-48.41 171 -139.82 171 -234 171 C-234 213.24 -234 255.48 -234 299 C-142.59 299 -51.18 299 43 299 C43 320.78 43 342.56 43 365 C47.37524631 361.24978888 51.46917127 357.65522057 55.51133728 353.60891724 C56.01959519 353.10151375 56.52785311 352.59411026 57.05151278 352.0713309 C58.73195042 350.39252336 60.40881947 348.71019862 62.08569336 347.02783203 C63.29831815 345.81492481 64.51116389 344.60223846 65.72421265 343.38975525 C69.00072942 340.11352426 72.2741634 336.83422895 75.54703593 333.55435801 C78.97385971 330.12126423 82.40353361 326.69102011 85.832901 323.26046753 C92.31934048 316.77092546 98.80322757 310.27883948 105.28619248 303.78582656 C112.66996395 296.3908606 120.05659013 288.99874893 127.44345272 281.60687089 C142.63213806 266.40774545 157.81725033 251.20505456 173 236 C171.40487165 232.10901823 168.89836547 229.6494035 165.94480896 226.6975708 C165.42519453 226.17554195 164.90558009 225.6535131 164.37021977 225.1156652 C162.62840932 223.36822033 160.87954399 221.62801364 159.13061523 219.88769531 C157.88030458 218.63631174 156.63042699 217.38449534 155.38095093 216.13227844 C151.98692122 212.73339999 148.58667216 209.34080653 145.18514895 205.94942951 C141.63089891 202.40395529 138.08191415 198.85321788 134.53224182 195.30316162 C128.57283188 189.34468826 122.60956053 183.39010175 116.64379883 177.43798828 C109.73649098 170.54642388 102.83444177 163.64962871 95.935368 156.7498219 C89.30738496 150.12122964 82.67655455 143.49549386 76.04411507 136.87136078 C73.21678269 134.04756812 70.39030953 131.22291946 67.56448174 128.39762115 C64.24184466 125.07598482 60.91668254 121.75689713 57.58950424 118.4398098 C56.36512115 117.21835989 55.14159551 115.9960498 53.91896629 114.77284431 C52.25767888 113.11107002 50.59337465 111.45237977 48.9282074 109.79449463 C47.99518516 108.86314823 47.06216291 107.93180183 46.10086727 106.97223282 C44.35874631 104.88592765 44.35874631 104.88592765 43 105 Z " fill="#000000" transform="translate(277,21)"/>
</svg>
