<?xml version="1.0" encoding="UTF-8"?>
<svg version="1.1" xmlns="http://www.w3.org/2000/svg" width="200" height="200">
<path d="M0 0 C5.35535221 3.02428852 9.44865155 7.14794803 13.75 11.5 C14.42160156 12.16386719 15.09320313 12.82773437 15.78515625 13.51171875 C16.75001953 14.48044922 16.75001953 14.48044922 17.734375 15.46875 C18.31413086 16.05076172 18.89388672 16.63277344 19.49121094 17.23242188 C22.08255746 20.26823884 22.94952579 22.44478373 23.3125 26.4375 C22.78495225 32.45154429 19.40365601 35.85676571 15.33255005 40.09637451 C14.63282461 40.82829698 14.63282461 40.82829698 13.91896331 41.57500577 C12.36108577 43.20148962 10.79622474 44.82105883 9.23095703 46.44042969 C8.10808304 47.60861017 6.98542837 48.77700149 5.86297607 49.94558716 C-4.44420782 60.65874422 -14.84454812 71.2821115 -25.26751518 81.88251877 C-32.25467601 88.99130738 -39.21335914 96.12367447 -46.10400391 103.32617188 C-52.13416099 109.62922204 -58.21443315 115.87876096 -64.35678208 122.0726006 C-67.59434454 125.34049292 -70.80474813 128.62652932 -73.95617294 131.97774506 C-92.70075323 151.86000105 -109.65529536 160.77491898 -137 164 C-138.32 164 -139.64 164 -141 164 C-140.69130768 161.32901677 -140.35015639 158.66577607 -140 156 C-139.8707696 154.92006775 -139.74153919 153.8401355 -139.60839272 152.72747803 C-136.12434304 126.79635332 -125.29969854 112.73223048 -106.65229392 95.05158234 C-103.21858531 91.7694808 -99.85738512 88.41451517 -96.48677063 85.06787109 C-90.84346551 79.4837377 -85.1579474 73.94619504 -79.43725586 68.44140625 C-71.3634265 60.67228078 -63.36853302 52.82557037 -55.38865983 44.96011734 C-44.69440622 34.42543997 -33.97478458 23.91587544 -23.1739521 13.49040222 C-22.01095671 12.3668779 -20.84952315 11.24173434 -19.68975067 10.11488342 C-18.1106284 8.58163896 -16.52557229 7.05481636 -14.93852234 5.52978516 C-14.05200831 4.67389801 -13.16549429 3.81801086 -12.2521162 2.93618774 C-8.40188622 -0.37392924 -4.93076067 -0.41786107 0 0 Z M-7.578125 9.08984375 C-8.45984375 10.02957031 -9.3415625 10.96929688 -10.25 11.9375 C-11.14203125 12.87464844 -12.0340625 13.81179687 -12.953125 14.77734375 C-13.62859375 15.51082031 -14.3040625 16.24429688 -15 17 C-13.54254576 20.36335594 -11.68882146 22.54534005 -9.0859375 25.109375 C-7.94511719 26.24052734 -7.94511719 26.24052734 -6.78125 27.39453125 C-5.9871875 28.17183594 -5.193125 28.94914062 -4.375 29.75 C-3.57320312 30.54277344 -2.77140625 31.33554687 -1.9453125 32.15234375 C0.03202846 34.10614493 2.01388909 36.05512103 4 38 C7.31115963 36.42400077 9.66702538 34.68825694 12.3125 32.125 C13.03050781 31.44695313 13.74851563 30.76890625 14.48828125 30.0703125 C16.22918495 28.16965169 16.22918495 28.16965169 15.81054688 26.11157227 C14.81220446 23.51076998 13.50587408 22.11782102 11.54296875 20.14453125 C10.84236328 19.44005859 10.14175781 18.73558594 9.41992188 18.00976562 C8.68322266 17.28466797 7.94652344 16.55957031 7.1875 15.8125 C6.46240234 15.07580078 5.73730469 14.33910156 4.99023438 13.58007812 C4.28576172 12.87947266 3.58128906 12.17886719 2.85546875 11.45703125 C2.21246826 10.81741455 1.56946777 10.17779785 0.90698242 9.51879883 C-2.53499834 6.77746451 -4.07534949 6.25047269 -7.578125 9.08984375 Z M-23.70040226 25.57735443 C-24.4442892 26.32216316 -25.18817614 27.06697189 -25.9546051 27.83435059 C-26.80580933 28.68418015 -27.65701355 29.5340097 -28.53401184 30.40959167 C-29.48439053 31.36351003 -30.43472156 32.31747588 -31.38500977 33.27148438 C-32.38000383 34.26676028 -33.37521768 35.26181649 -34.37063599 36.25666809 C-37.08141229 38.96715631 -39.78908433 41.68072687 -42.49623227 44.39483833 C-45.32252717 47.22736493 -48.1516354 50.05707865 -50.98045349 52.88708496 C-56.34085979 58.25060513 -61.6987109 63.61667035 -67.05566114 68.9836421 C-73.15275737 75.09189776 -79.25267768 81.1973298 -85.3528434 87.3025198 C-97.90505293 99.86519496 -110.4536903 112.43143283 -123 125 C-122.04162906 126.12390359 -121.08243549 127.24710574 -120.12289429 128.37001038 C-119.58883154 128.99556855 -119.05476879 129.62112673 -118.50452232 130.26564121 C-116.85464832 132.16755614 -115.14023287 133.97429763 -113.3515625 135.74609375 C-112.73925781 136.35517578 -112.12695312 136.96425781 -111.49609375 137.59179688 C-110.87863281 138.20087891 -110.26117188 138.80996094 -109.625 139.4375 C-108.98433594 140.07365234 -108.34367187 140.70980469 -107.68359375 141.36523438 C-106.12468978 142.91250473 -104.56303148 144.45690292 -103 146 C-97.17542233 141.16360691 -91.82483957 135.96060848 -86.48461914 130.59814453 C-85.55700775 129.67067917 -84.62939636 128.74321381 -83.67367554 127.78764343 C-81.14920012 125.26345305 -78.6278038 122.73620768 -76.10697865 120.20837259 C-73.46492341 117.56003472 -70.82000581 114.91455855 -68.17539978 112.26876831 C-63.17642847 107.2666981 -58.18001016 102.26208593 -53.18452018 97.25653923 C-47.49358824 91.55440126 -41.79979144 85.85512761 -36.10576069 80.1560843 C-24.40066585 68.44055771 -12.69914635 56.72146684 -1 45 C-1.95875918 43.87614538 -2.91826957 42.75293159 -3.87809753 41.62998962 C-4.41234439 41.00443145 -4.94659124 40.37887327 -5.4970274 39.73435879 C-7.13953761 37.83898025 -8.84172684 36.02910209 -10.61328125 34.25390625 C-11.22107422 33.64482422 -11.82886719 33.03574219 -12.45507812 32.40820312 C-13.06802734 31.79912109 -13.68097656 31.19003906 -14.3125 30.5625 C-14.94478516 29.92634766 -15.57707031 29.29019531 -16.22851562 28.63476562 C-17.13053711 27.73467773 -17.13053711 27.73467773 -18.05078125 26.81640625 C-18.59387939 26.27443604 -19.13697754 25.73246582 -19.6965332 25.17407227 C-21.68508937 23.38291913 -21.68324806 23.70616948 -23.70040226 25.57735443 Z M-127 133 C-127.67218507 135.74875682 -128.33792435 138.49880726 -129 141.25 C-129.19078125 142.02730469 -129.3815625 142.80460938 -129.578125 143.60546875 C-129.75859375 144.35957031 -129.9390625 145.11367187 -130.125 145.890625 C-130.29257813 146.58188477 -130.46015625 147.27314453 -130.6328125 147.98535156 C-131.11953671 150.31455624 -131.11953671 150.31455624 -131 154 C-123.84404654 153.29843593 -116.98144819 151.69214979 -110 150 C-111.31307372 147.10147635 -112.72684638 145.01722783 -114.96875 142.765625 C-115.53980469 142.19199219 -116.11085938 141.61835938 -116.69921875 141.02734375 C-117.29347656 140.44082031 -117.88773438 139.85429687 -118.5 139.25 C-119.39138672 138.34701172 -119.39138672 138.34701172 -120.30078125 137.42578125 C-120.87183594 136.85730469 -121.44289063 136.28882813 -122.03125 135.703125 C-122.55267578 135.18395508 -123.07410156 134.66478516 -123.61132812 134.12988281 C-124.96018269 132.78962453 -124.96018269 132.78962453 -127 133 Z " fill="#000000" transform="translate(159,18)"/>
</svg>
