<?xml version="1.0" encoding="UTF-8"?>
<svg version="1.1" xmlns="http://www.w3.org/2000/svg" width="600" height="600">
<path d="M0 0 C0.85658046 -0.00367669 1.71316092 -0.00735338 2.59569836 -0.01114148 C5.47119428 -0.02217032 8.34665406 -0.02602085 11.22216797 -0.02983093 C13.28208023 -0.03609632 15.34199135 -0.04274318 17.40190125 -0.04974365 C24.17271132 -0.07078205 30.94352161 -0.08114759 37.71435547 -0.09111023 C40.04690564 -0.09515823 42.37945569 -0.09927516 44.71200562 -0.10346031 C55.67372005 -0.12251351 66.63542776 -0.13674284 77.59715557 -0.14507228 C90.2395079 -0.15483784 102.88168483 -0.18113916 115.52397537 -0.22157317 C125.30165885 -0.25176889 135.07929215 -0.26654455 144.85702133 -0.26985329 C150.69359876 -0.27220032 156.52998882 -0.28111543 162.36651611 -0.30631447 C167.8626125 -0.32965975 173.35839905 -0.33380237 178.85453224 -0.32355309 C180.86520228 -0.32305914 182.87588791 -0.32933748 184.88651085 -0.34310913 C202.78877861 -0.45880847 217.88549526 2.59099245 231.40185547 15.39717102 C241.54092162 26.25258424 247.75798329 39.5667012 247.68701172 54.54170227 C247.68378906 55.74375305 247.68056641 56.94580383 247.67724609 58.1842804 C247.66886719 59.4301593 247.66048828 60.67603821 247.65185547 61.95967102 C247.64734375 63.22488586 247.64283203 64.49010071 247.63818359 65.7936554 C247.62641798 68.91154212 247.60997819 72.02933235 247.58935547 75.14717102 C248.39986862 75.13828857 249.21038177 75.12940613 250.04545593 75.12025452 C257.73791646 75.0396245 265.43016792 74.97896335 273.12294292 74.93992233 C277.07653226 74.91917517 281.02976824 74.89109806 284.9831543 74.84541321 C288.80872306 74.80148934 292.6339551 74.77793755 296.45975685 74.76766205 C297.90880435 74.76035307 299.35783646 74.74608422 300.8067379 74.72425079 C318.16478609 74.473431 331.89657854 79.38963091 344.74951172 91.21748352 C353.72680007 100.63315326 359.63608821 112.79150111 359.76635742 125.88032532 C359.77919266 127.00887436 359.79202789 128.1374234 359.80525208 129.3001709 C359.81633247 131.11742424 359.81633247 131.11742424 359.82763672 132.97138977 C359.83570847 134.2279689 359.84378021 135.48454803 359.85209656 136.77920532 C359.8659174 139.43794927 359.87693911 142.09657013 359.88452148 144.75532532 C359.8955544 148.13656105 359.92993393 151.51713302 359.96969318 154.89813519 C360.00236209 158.15165297 360.0066551 161.40523302 360.01513672 164.65888977 C360.03264481 165.86027084 360.05015289 167.06165192 360.06819153 168.29943848 C360.04290166 178.19134792 358.15324052 186.21743307 351.15185547 193.52217102 C350.41064453 194.3136554 349.66943359 195.10513977 348.90576172 195.92060852 C345.36850982 199.32066515 341.87869318 202.27683755 337.40185547 204.33467102 C336.72767578 204.65822571 336.05349609 204.9817804 335.35888672 205.31513977 C332.64147034 206.13151451 330.23456827 206.43759814 327.41625977 206.69917297 C326.51312546 206.78447769 325.60999115 206.86978241 324.67948914 206.95767212 C323.64487297 207.05147408 323.64487297 207.05147408 322.58935547 207.14717102 C322.59106421 208.17651043 322.59106421 208.17651043 322.59280747 209.22664458 C322.66000311 249.93601491 322.71144616 290.64537878 322.74255146 331.35479346 C322.74630339 336.24741876 322.75018637 341.14004394 322.75415039 346.03266907 C322.75493732 347.00666544 322.75572425 347.98066182 322.75653503 348.98417323 C322.76957397 364.7362155 322.79321946 380.48822477 322.82081386 396.2402475 C322.84891017 412.41418536 322.86554065 428.58810599 322.87162095 444.76206726 C322.87572864 454.73496322 322.88868268 464.70776593 322.91310487 474.68063318 C322.92901427 481.52782308 322.93374409 488.37496507 322.9298596 495.22217209 C322.92794612 499.16728835 322.93079173 503.11224212 322.94697189 507.05732918 C322.96171794 510.67947726 322.96221413 514.30135571 322.95205215 517.92351698 C322.95021157 519.83314225 322.96301788 521.742765 322.9765994 523.65234286 C322.87290372 543.94543975 316.62129183 562.96486563 302.71826172 578.11201477 C286.87053429 593.26186063 268.38797238 600.81560185 246.47229004 600.65510559 C245.12121809 600.65972971 243.7701512 600.66609264 242.41909456 600.67401457 C238.75348855 600.69052421 235.08830561 600.68254674 231.42269921 600.67006969 C227.45124131 600.66094514 223.47985154 600.67502528 219.50840759 600.68598938 C211.74691711 600.70370088 203.98558206 600.69996768 196.22408569 600.68833882 C189.91163038 600.67927559 183.59921838 600.67809294 177.28675842 600.68243408 C175.93498852 600.68335348 175.93498852 600.68335348 174.55591014 600.68429145 C172.72472011 600.68557046 170.89353009 600.68686731 169.06234008 600.68818182 C151.92368211 600.69956603 134.78510997 600.68650789 117.64646608 600.66498035 C102.96641621 600.64711134 88.2864929 600.65021605 73.60644531 600.6686554 C56.52574378 600.69010036 39.44511732 600.69846759 22.3644042 600.68620634 C20.54025365 600.68493225 18.71610309 600.68367477 16.89195251 600.68243408 C15.99462395 600.68181698 15.09729539 600.68119988 14.17277506 600.68056408 C7.87379631 600.67712204 1.57486549 600.6829147 -4.72410583 600.69235229 C-12.40891233 600.70361405 -20.09355557 600.70044497 -27.77834356 600.67922932 C-31.6932125 600.66877475 -35.60781003 600.66450045 -39.52267647 600.67782593 C-43.11657267 600.68987315 -46.70994964 600.68298827 -50.30379969 600.66191572 C-52.19778331 600.65543346 -54.09180389 600.66827462 -55.98574781 600.68214464 C-75.3635731 600.5078475 -92.99187102 593.09674741 -106.91308594 579.67256165 C-123.06998724 563.21538536 -128.58324835 543.39113345 -128.53089905 520.89120483 C-128.53133546 519.53635352 -128.53221165 518.18150229 -128.53348821 516.82665151 C-128.53571945 513.11414147 -128.53173067 509.40166039 -128.52671015 505.68915403 C-128.52238614 501.68174134 -128.52385346 497.67433025 -128.52461243 493.66691589 C-128.52513642 486.72727129 -128.52200258 479.78763609 -128.51637459 472.84799385 C-128.50824279 462.81447291 -128.50564264 452.78095652 -128.5043866 442.74743264 C-128.50219872 426.46815991 -128.49554579 410.1888922 -128.48608398 393.90962219 C-128.47690303 378.09712245 -128.46982554 362.28462407 -128.46557617 346.47212219 C-128.46531345 345.4972137 -128.46505072 344.52230521 -128.46478004 343.51785404 C-128.46347499 338.62695719 -128.46221128 333.73606033 -128.46096814 328.84516346 C-128.45060376 288.2791625 -128.43299262 247.71316704 -128.41064453 207.14717102 C-129.09277512 207.08971207 -129.7749057 207.03225311 -130.47770691 206.97305298 C-131.37491959 206.89169601 -132.27213226 206.81033905 -133.1965332 206.72651672 C-134.08491379 206.64843277 -134.97329437 206.57034882 -135.88859558 206.48989868 C-139.2124321 206.03821406 -141.77508902 204.91042464 -144.72314453 203.33467102 C-145.68865234 202.83322571 -146.65416016 202.3317804 -147.64892578 201.81513977 C-152.39083089 198.95121688 -155.86378034 195.94495804 -159.03564453 191.39717102 C-159.60541016 190.59795227 -160.17517578 189.79873352 -160.76220703 188.97529602 C-165.46302699 180.91038216 -165.86650436 174.07136551 -165.84423828 164.88154602 C-165.84948013 163.61175903 -165.85472198 162.34197205 -165.86012268 161.03370667 C-165.86652916 158.35392472 -165.86667664 155.67499954 -165.85668945 152.99531555 C-165.84523993 149.59521122 -165.86536667 146.19615178 -165.89460659 142.79618454 C-165.9175929 139.51213549 -165.9104907 136.22815646 -165.90673828 132.94404602 C-165.91797226 131.7405249 -165.92920624 130.53700378 -165.94078064 129.29701233 C-165.82216201 114.69883494 -160.46557987 101.91887769 -150.57861328 91.15888977 C-142.9618968 84.09112583 -134.44662113 78.96193574 -124.41064453 76.14717102 C-123.83860291 75.97097733 -123.26656128 75.79478363 -122.67718506 75.61325073 C-119.68675806 74.99831474 -116.85973219 75.02790582 -113.80615234 75.03364563 C-112.82504234 75.03342659 -112.82504234 75.03342659 -111.82411194 75.03320312 C-109.67063027 75.03389761 -107.51723601 75.04166819 -105.36376953 75.04951477 C-103.8673304 75.0513806 -102.37089065 75.05280373 -100.87445068 75.05380249 C-96.94206038 75.05761467 -93.00970721 75.06743385 -89.07733154 75.07850647 C-85.0621389 75.08874853 -81.04694023 75.0933061 -77.03173828 75.0983429 C-69.15802336 75.1090573 -61.28433857 75.12611811 -53.41064453 75.14717102 C-53.42635498 74.39210266 -53.44206543 73.6370343 -53.45825195 72.85908508 C-53.52138001 69.37185946 -53.55987951 65.88475469 -53.59814453 62.39717102 C-53.62328125 61.20994446 -53.64841797 60.0227179 -53.67431641 58.79951477 C-53.80978999 42.27173694 -49.05703112 28.29467323 -37.64868164 16.24067688 C-27.43638215 5.91825318 -14.51064819 -0.00333921 0 0 Z M-10.72314453 44.27217102 C-17.6754005 53.26375541 -15.41064453 64.07128954 -15.41064453 75.14717102 C58.50935547 75.14717102 132.42935547 75.14717102 208.58935547 75.14717102 C210.37820985 53.6068458 210.37820985 53.6068458 205.58935547 45.14717102 C199.54101099 39.36179804 194.85611561 37.84443933 186.63223267 37.88647461 C185.83660679 37.88264906 185.04098092 37.87882352 184.22124517 37.87488204 C181.55823665 37.86457259 178.89544456 37.86854029 176.23242188 37.87251282 C174.32188213 37.86816519 172.41134412 37.86298187 170.50080872 37.85702515 C165.31276409 37.84362888 160.12479228 37.84305722 154.93673372 37.84558845 C150.60520954 37.84665781 146.27370011 37.84177563 141.94217908 37.83698303 C131.72267198 37.8258855 121.50320162 37.82545171 111.28369141 37.83149719 C100.74260737 37.83753706 90.2016568 37.82522616 79.66059554 37.80392712 C70.60907154 37.78631061 61.55759002 37.78030988 52.50604951 37.78356487 C47.10061094 37.78537791 41.69526756 37.78273947 36.28984451 37.76885033 C31.20580054 37.75627598 26.12196458 37.75821245 21.03792381 37.77126122 C19.17351778 37.77362746 17.30909714 37.77089061 15.44470787 37.76263809 C12.89637939 37.75217286 10.34874914 37.76026935 7.80044556 37.77294922 C7.06551113 37.76557493 6.3305767 37.75820065 5.57337153 37.7506029 C-0.70539497 37.81616898 -6.49769055 39.34445849 -10.72314453 44.27217102 Z M-123.78564453 119.58467102 C-133.1596945 134.36682673 -127.41064453 148.6442564 -127.41064453 168.14717102 C20.75935547 168.14717102 168.92935547 168.14717102 321.58935547 168.14717102 C325.02439521 142.07978294 325.02439521 142.07978294 315.77294922 117.30732727 C315.19673828 116.94510071 314.62052734 116.58287415 314.02685547 116.20967102 C313.15867187 115.63926086 313.15867187 115.63926086 312.27294922 115.05732727 C308.3710941 112.94797172 305.02409838 113.01906875 300.66764545 113.01294994 C299.95577537 113.01059771 299.24390529 113.00824548 298.51046339 113.00582197 C296.1068394 112.99912455 293.70326938 112.99959042 291.29963684 113 C289.56620742 112.99670184 287.83277877 112.99297637 286.09935111 112.98885852 C281.32151033 112.978825 276.54368212 112.97511956 271.7658323 112.97246921 C266.61843923 112.96857018 261.47105614 112.95899158 256.32366943 112.95025635 C243.8857689 112.93048086 231.44786753 112.92042447 219.0099552 112.91152856 C213.1558386 112.90714754 207.30172292 112.90178026 201.44760704 112.89653969 C181.9926424 112.87952653 162.53767834 112.86503161 143.08270741 112.85779095 C138.03243318 112.85588099 132.98215897 112.85396066 127.93188477 112.852005 C126.04900402 112.85127939 126.04900402 112.85127939 124.12808528 112.85053913 C103.78672689 112.84223607 83.44542726 112.81689488 63.10409454 112.78442433 C42.23037069 112.75137498 21.35667671 112.73334412 0.48292655 112.73014671 C-11.24109147 112.72797967 -22.96502379 112.71920267 -34.68901634 112.69368553 C-44.67225784 112.67200758 -54.65539284 112.66391381 -64.63865521 112.67365231 C-69.73329576 112.6782054 -74.82771646 112.67625221 -79.92232704 112.65689087 C-84.58643433 112.63931849 -89.25016039 112.64020867 -93.91427139 112.65578816 C-95.60139691 112.65817325 -97.28854842 112.65379414 -98.97563412 112.64195951 C-112.58533887 112.4115368 -112.58533887 112.4115368 -123.78564453 119.58467102 Z M-90.41064453 207.14717102 C-90.45189453 259.36967102 -90.49314453 311.59217102 -90.53564453 365.39717102 C-90.55385254 381.88975891 -90.57206055 398.3823468 -90.59082031 415.37471008 C-90.59750896 430.15177876 -90.59750896 430.15177876 -90.60153198 444.92884827 C-90.60339611 451.51333546 -90.61072852 458.09778867 -90.62179565 464.68226624 C-90.63454734 472.28024311 -90.64031149 479.87818741 -90.63753443 487.47617505 C-90.63633219 491.36091687 -90.63820748 495.24558595 -90.64907479 499.13031435 C-90.66066092 503.29746013 -90.65661759 507.46444877 -90.65115356 511.63160706 C-90.65697889 512.83362637 -90.66280422 514.03564568 -90.66880608 515.27408981 C-90.61686228 530.04107158 -88.48336668 541.3071565 -78.28564453 552.36201477 C-68.99166231 561.21066034 -57.82897443 562.59857165 -45.46862793 562.52812195 C-44.19715456 562.53280192 -42.92568118 562.53748189 -41.61567831 562.54230368 C-38.11160634 562.55475367 -34.60778149 562.54867097 -31.10370898 562.53934503 C-27.31495719 562.53253007 -23.52624655 562.54304784 -19.73750305 562.55128479 C-12.3252775 562.56459831 -4.91314329 562.56175503 2.49908578 562.55304687 C8.52518039 562.54626134 14.55124947 562.54535736 20.5773468 562.54861832 C21.86568963 562.54930787 21.86568963 562.54930787 23.18005958 562.55001134 C24.92509394 562.55097056 26.67012828 562.5519432 28.41516262 562.55292912 C44.76389849 562.56147604 61.11258382 562.55165984 77.4613114 562.53552802 C91.47781363 562.52212547 105.49424131 562.52445376 119.51074219 562.5382843 C135.80248221 562.55435245 152.09417798 562.56065213 168.38592482 562.55144751 C170.12440458 562.5504919 171.86288436 562.54954879 173.60136414 562.54861832 C174.88428608 562.54792408 174.88428608 562.54792408 176.19312564 562.54721581 C182.2093531 562.54462963 188.22555241 562.54898889 194.24177551 562.55605698 C201.57731233 562.56448591 208.91275289 562.56216261 216.24827874 562.54621474 C219.98828306 562.53835073 223.72812711 562.53520834 227.46813011 562.5451622 C231.52800485 562.55580367 235.58747771 562.54306527 239.64733887 562.52812195 C240.82147418 562.53481411 241.99560948 562.54150628 243.20532465 562.54840124 C255.58889951 562.46009433 264.2221458 559.33425979 273.58935547 551.14717102 C282.37367683 542.07185764 284.18545298 531.80627368 284.07037354 519.56840515 C284.07212656 518.21833472 284.07564032 516.86826564 284.08074951 515.51820374 C284.08967117 511.82524208 284.07373764 508.13274916 284.05364639 504.43984696 C284.03611457 500.390049 284.04202911 496.34027087 284.04491806 492.29044533 C284.04704029 484.43763261 284.02861417 476.58500361 284.00291274 468.73223803 C283.97406201 459.64437551 283.97093099 450.55662262 283.96777344 441.46870422 C283.94678989 417.48649747 283.89094523 393.50433147 283.83935547 369.52217102 C283.75685547 315.93842102 283.67435547 262.35467102 283.58935547 207.14717102 C160.16935547 207.14717102 36.74935547 207.14717102 -90.41064453 207.14717102 Z " fill="#000000" transform="translate(202.41064453125,-0.1471710205078125)"/>
<path d="M0 0 C0.94774796 -0.00428513 1.89549591 -0.00857025 2.8719635 -0.01298523 C4.86800338 -0.01870507 6.86406409 -0.01924617 8.86010742 -0.01489258 C11.89733757 -0.01173209 14.93359309 -0.03522328 17.97070312 -0.06054688 C19.91796753 -0.06282021 21.86523453 -0.06352321 23.8125 -0.0625 C24.71169662 -0.07170975 25.61089325 -0.08091949 26.53733826 -0.09040833 C33.54766931 -0.03949878 39.1609952 1.05145241 44.78515625 5.55078125 C49.93880227 12.02965053 50.40949441 17.68952254 50.35360718 25.70031738 C50.35828715 26.73449814 50.36296712 27.7686789 50.36778891 28.83419847 C50.37973564 32.29259167 50.37028266 35.75058838 50.36083984 39.20898438 C50.36490567 41.69124075 50.37024761 44.17349532 50.37677002 46.65574646 C50.38902797 52.69377799 50.38723592 58.73165445 50.3785321 64.7696799 C50.37175042 69.67792928 50.37084092 74.58614731 50.37410355 79.49440002 C50.37456325 80.19359693 50.37502294 80.89279383 50.37549657 81.61317852 C50.37645577 83.03368867 50.37742841 84.45419882 50.37841435 85.87470895 C50.38696413 99.18744426 50.37714058 112.50011754 50.36101325 125.81284267 C50.34761043 137.22991445 50.34993864 148.64689471 50.36376953 160.06396484 C50.37983263 173.32983071 50.3861402 186.59564224 50.37693274 199.86151648 C50.37597712 201.2767318 50.375034 202.69194713 50.37410355 204.10716248 C50.37364072 204.80343247 50.37317789 205.49970247 50.37270104 206.21707156 C50.37011334 211.11808074 50.3744774 216.01905538 50.38154221 220.9200592 C50.39084607 227.51926259 50.3841996 234.11832001 50.36685944 240.71751595 C50.36289173 243.13986486 50.36403346 245.56222832 50.37064743 247.98457146 C50.37884147 251.29032594 50.36856653 254.59552598 50.35360718 257.90124512 C50.36029934 258.86049031 50.36699151 259.8197355 50.37388647 260.80804873 C50.31803557 267.16841097 49.6230533 272.3375311 45.21875 277.26171875 C44.62191406 277.72835938 44.02507812 278.195 43.41015625 278.67578125 C42.51103516 279.39894531 42.51103516 279.39894531 41.59375 280.13671875 C38.61987914 282.27217301 36.68814248 282.43823362 33.06738281 282.4777832 C32.04582092 282.49061844 31.02425903 282.50345367 29.97174072 282.51667786 C28.30930328 282.52775826 28.30930328 282.52775826 26.61328125 282.5390625 C25.47614685 282.54713425 24.33901245 282.55520599 23.16741943 282.56352234 C20.75648528 282.57737223 18.34553144 282.58809032 15.93457031 282.59594727 C12.25157345 282.61314621 8.56947722 282.65702415 4.88671875 282.70117188 C2.54557953 282.71129978 0.20443266 282.71981558 -2.13671875 282.7265625 C-3.7870108 282.75282463 -3.7870108 282.75282463 -5.47064209 282.77961731 C-12.82349775 282.7588168 -16.31550621 281.82746775 -21.671875 276.73828125 C-25.22188634 272.36903652 -26.14866884 269.38525144 -26.16156483 263.8641243 C-26.16602267 262.97631122 -26.17048051 262.08849814 -26.17507344 261.17378163 C-26.17488908 260.20258909 -26.17470472 259.23139655 -26.17451477 258.23077393 C-26.17819146 257.19577845 -26.18186815 256.16078298 -26.18565625 255.09442401 C-26.19669716 251.61535321 -26.20053762 248.13631227 -26.2043457 244.65722656 C-26.21060997 242.1671845 -26.21725674 239.67714337 -26.22425842 237.18710327 C-26.24348607 229.70776434 -26.25408597 222.22843334 -26.26298621 214.74907696 C-26.26737161 211.22556732 -26.27273771 207.70205918 -26.27797508 204.17855072 C-26.29498435 192.46380043 -26.30947866 180.74905106 -26.31672382 169.03429031 C-26.31863366 165.99551645 -26.320554 162.95674259 -26.32250977 159.91796875 C-26.32323538 158.78508526 -26.32323538 158.78508526 -26.32397565 157.62931523 C-26.33227656 145.39379266 -26.35761583 133.15836784 -26.39009044 120.92288795 C-26.42316984 108.35698283 -26.44117332 95.79112737 -26.44436806 83.22517848 C-26.44653219 76.17143232 -26.45526664 69.11782876 -26.48082924 62.06412506 C-26.50482028 55.42884201 -26.50835641 48.79376941 -26.49806786 42.15843582 C-26.4975716 39.72359743 -26.50391828 37.28874655 -26.5176239 34.85394669 C-26.53529489 31.52856361 -26.52825937 28.20410664 -26.51509094 24.87872314 C-26.52606019 23.91645349 -26.53702943 22.95418383 -26.54833108 21.96275449 C-26.4787688 14.68100549 -24.86428546 9.21439706 -19.71484375 3.92578125 C-13.41670771 0.11760597 -7.16642053 -0.00724742 0 0 Z M-6.02734375 20.30078125 C-6.02734375 100.49078125 -6.02734375 180.68078125 -6.02734375 263.30078125 C5.85265625 263.30078125 17.73265625 263.30078125 29.97265625 263.30078125 C29.97265625 183.11078125 29.97265625 102.92078125 29.97265625 20.30078125 C18.09265625 20.30078125 6.21265625 20.30078125 -6.02734375 20.30078125 Z " fill="#000000" transform="translate(400.02734375,242.69921875)"/>
<path d="M0 0 C0.85478943 -0.00960754 1.70957886 -0.01921509 2.590271 -0.02911377 C3.96532806 -0.03548859 3.96532806 -0.03548859 5.36816406 -0.04199219 C6.32015686 -0.04769226 7.27214966 -0.05339233 8.25299072 -0.05926514 C10.26695651 -0.06870373 12.28093766 -0.07524459 14.29492188 -0.07910156 C17.3586766 -0.08878779 20.42175473 -0.11981421 23.48535156 -0.15136719 C25.4462851 -0.15789976 27.40722341 -0.16314923 29.36816406 -0.16699219 C30.27677185 -0.17933899 31.18537964 -0.19168579 32.121521 -0.20440674 C39.17373726 -0.18000687 44.78609533 0.88297782 50.44628906 5.41113281 C55.59993508 11.8900021 56.07062723 17.5498741 56.01473999 25.56066895 C56.01941996 26.59484971 56.02409993 27.62903047 56.02892172 28.69455004 C56.04086845 32.15294323 56.03141547 35.61093994 56.02197266 39.06933594 C56.02603848 41.55159232 56.03138043 44.03384688 56.03790283 46.51609802 C56.05016078 52.55412955 56.04836873 58.59200601 56.03966491 64.63003147 C56.03288324 69.53828084 56.03197373 74.44649887 56.03523636 79.35475159 C56.03569606 80.05394849 56.03615576 80.75314539 56.03662939 81.47353008 C56.03758859 82.89404024 56.03856123 84.31455038 56.03954716 85.73506051 C56.04809695 99.04779582 56.03827339 112.3604691 56.02214606 125.67319423 C56.00874324 137.09026601 56.01107145 148.50724628 56.02490234 159.92431641 C56.04096544 173.19018227 56.04727301 186.45599381 56.03806555 199.72186804 C56.03710993 201.13708336 56.03616682 202.5522987 56.03523636 203.96751404 C56.03477353 204.66378404 56.03431071 205.36005404 56.03383385 206.07742313 C56.03124615 210.9784323 56.03561022 215.87940694 56.04267502 220.78041077 C56.05197889 227.37961416 56.04533241 233.97867157 56.02799225 240.57786751 C56.02402455 243.00021642 56.02516627 245.42257988 56.03178024 247.84492302 C56.03997429 251.15067751 56.02969934 254.45587754 56.01473999 257.76159668 C56.02143216 258.72084187 56.02812432 259.68008706 56.03501928 260.66840029 C55.97916838 267.02876253 55.28418611 272.19788266 50.87988281 277.12207031 C50.28304687 277.58871094 49.68621094 278.05535156 49.07128906 278.53613281 C48.17216797 279.25929688 48.17216797 279.25929688 47.25488281 279.99707031 C44.28101195 282.13252457 42.34927529 282.29858518 38.72851562 282.33813477 C37.70695374 282.35097 36.68539185 282.36380524 35.63287354 282.37702942 C33.9704361 282.38810982 33.9704361 282.38810982 32.27441406 282.39941406 C31.13727966 282.40748581 30.00014526 282.41555756 28.82855225 282.4238739 C26.41761809 282.43772379 24.00666426 282.44844188 21.59570312 282.45629883 C17.91270626 282.47349777 14.23061003 282.51737572 10.54785156 282.56152344 C8.20671234 282.57165134 5.86556547 282.58016714 3.52441406 282.58691406 C1.87412201 282.61317619 1.87412201 282.61317619 0.19049072 282.63996887 C-7.16236494 282.61916836 -10.6543734 281.68781931 -16.01074219 276.59863281 C-19.56075353 272.22938808 -20.48753603 269.24560301 -20.50043201 263.72447586 C-20.50488986 262.83666278 -20.5093477 261.9488497 -20.51394063 261.0341332 C-20.51375627 260.06294065 -20.51357191 259.09174811 -20.51338196 258.09112549 C-20.51705865 257.05613002 -20.52073533 256.02113454 -20.52452344 254.95477557 C-20.53556435 251.47570477 -20.5394048 247.99666383 -20.54321289 244.51757812 C-20.54947716 242.02753606 -20.55612393 239.53749493 -20.56312561 237.04745483 C-20.58235326 229.5681159 -20.59295316 222.08878491 -20.6018534 214.60942852 C-20.6062388 211.08591888 -20.6116049 207.56241074 -20.61684227 204.03890228 C-20.63385154 192.32415199 -20.64834585 180.60940262 -20.65559101 168.89464188 C-20.65750085 165.85586801 -20.65942119 162.81709415 -20.66137695 159.77832031 C-20.66210256 158.64543682 -20.66210256 158.64543682 -20.66284283 157.48966679 C-20.67114375 145.25414422 -20.69648302 133.0187194 -20.72895763 120.78323951 C-20.76203702 108.21733439 -20.7800405 95.65147893 -20.78323525 83.08553004 C-20.78539938 76.03178388 -20.79413383 68.97818032 -20.81969643 61.92447662 C-20.84368747 55.28919358 -20.8472236 48.65412097 -20.83693504 42.01878738 C-20.83643879 39.583949 -20.84278547 37.14909811 -20.85649109 34.71429825 C-20.87416207 31.38891517 -20.86712656 28.0644582 -20.85395813 24.73907471 C-20.86492738 23.77680505 -20.87589662 22.81453539 -20.88719827 21.82310605 C-20.82941373 15.77424617 -19.78756989 11.22184324 -16.36621094 6.16113281 C-14.36621094 4.32128906 -14.36621094 4.32128906 -12.36621094 3.22363281 C-11.70621094 2.84335938 -11.04621094 2.46308594 -10.36621094 2.07128906 C-6.9200885 0.50303412 -3.76804116 0.03436643 0 0 Z M-0.36621094 20.16113281 C-0.36621094 100.35113281 -0.36621094 180.54113281 -0.36621094 263.16113281 C11.51378906 263.16113281 23.39378906 263.16113281 35.63378906 263.16113281 C35.63378906 182.97113281 35.63378906 102.78113281 35.63378906 20.16113281 C23.75378906 20.16113281 11.87378906 20.16113281 -0.36621094 20.16113281 Z " fill="#000000" transform="translate(169.3662109375,242.8388671875)"/>
<path d="M0 0 C0.92035034 -0.00287018 1.84070068 -0.00574036 2.78894043 -0.00869751 C4.72176738 -0.01072581 6.65461544 -0.00528302 8.58740234 0.00732422 C11.52358478 0.02339554 14.45839095 0.00743319 17.39453125 -0.01171875 C19.28385716 -0.0097361 21.17318223 -0.00589197 23.0625 0 C23.92838745 -0.00607269 24.7942749 -0.01214539 25.68640137 -0.0184021 C32.24886779 0.05626174 38.91746012 0.91643107 44.1875 5.1171875 C44.6309375 5.705 45.074375 6.2928125 45.53125 6.8984375 C46.22734375 7.78015625 46.22734375 7.78015625 46.9375 8.6796875 C48.85608536 11.69460736 49.15781451 14.28301035 49.16826439 17.75889874 C49.17333893 18.65517095 49.17841347 19.55144317 49.18364179 20.47487515 C49.18413955 21.46065338 49.18463731 22.44643161 49.18515015 23.46208191 C49.19172353 25.03166947 49.19172353 25.03166947 49.1984297 26.63296586 C49.21183698 30.15659817 49.21800091 33.68020545 49.22412109 37.20385742 C49.23202051 39.72330845 49.24028936 42.24275834 49.24890137 44.76220703 C49.2728736 52.33539654 49.28805166 59.90858482 49.30096143 67.48180029 C49.30467377 69.62099585 49.30864697 71.76019077 49.3127141 73.89938569 C49.33795097 87.185001 49.36000292 100.47061735 49.37244225 113.75625134 C49.37537192 116.83335054 49.37833358 119.91044971 49.38134766 122.98754883 C49.38209371 123.75234184 49.38283976 124.51713484 49.38360842 125.3051034 C49.39626047 137.69267634 49.42948184 150.08010569 49.47114949 162.46761151 C49.51358313 175.18716566 49.53713892 187.90664633 49.54236281 200.62627107 C49.54577531 207.76725896 49.55751126 214.90802247 49.59046555 222.04894066 C49.62141853 228.76718089 49.62687494 235.48496183 49.61508179 242.20328522 C49.61486065 244.66876749 49.6231983 247.13426767 49.64073563 249.59968758 C49.66338336 252.96688904 49.65515102 256.33266639 49.63925171 259.69987488 C49.66007484 261.16181181 49.66007484 261.16181181 49.68131864 262.65328282 C49.60659396 269.08048215 48.23654866 273.45594793 44.03125 278.3984375 C38.16661241 283.08347056 32.75523529 282.98571831 25.4375 282.9296875 C24.33200806 282.9335144 23.22651611 282.93734131 22.08752441 282.94128418 C19.75772182 282.94399775 17.42788847 282.93667567 15.09814453 282.91992188 C11.5425999 282.89850586 7.98907592 282.9197441 4.43359375 282.9453125 C2.16405806 282.94266913 -0.10547637 282.93754396 -2.375 282.9296875 C-3.43247437 282.93778442 -4.48994873 282.94588135 -5.57946777 282.95422363 C-13.19991887 282.85794134 -17.63403915 281.55289371 -23.28125 276.2109375 C-27.30647649 269.50222668 -27.25965713 261.70065632 -27.22271729 254.07556152 C-27.22739726 252.57284643 -27.22739726 252.57284643 -27.23217177 251.03977346 C-27.24011102 247.70288702 -27.23384401 244.36618448 -27.22753906 241.02929688 C-27.23025073 238.62880853 -27.23381265 236.22832102 -27.23815918 233.82783508 C-27.24631996 227.99665476 -27.24514232 222.16553229 -27.2393339 216.33435023 C-27.23480758 211.59302831 -27.23420869 206.8517208 -27.23638153 202.11039734 C-27.236688 201.43425175 -27.23699446 200.75810616 -27.23731022 200.06147131 C-27.2379497 198.6876717 -27.23859813 197.31387208 -27.2392554 195.94007248 C-27.24495139 183.07365257 -27.23841228 170.20726122 -27.22765467 157.340846 C-27.21871982 146.31331664 -27.22027206 135.28582939 -27.22949219 124.25830078 C-27.24020774 111.43628513 -27.24440214 98.61429446 -27.23826766 85.79227495 C-27.2376306 84.42367586 -27.23700185 83.05507676 -27.23638153 81.68647766 C-27.23607298 81.01319194 -27.23576443 80.33990623 -27.23544653 79.64621791 C-27.23372344 74.9134464 -27.23662634 70.1806908 -27.24134064 65.44792175 C-27.24712507 59.07195847 -27.24309699 52.69607458 -27.23155212 46.32011986 C-27.22891143 43.98246073 -27.22966053 41.64479489 -27.23407745 39.30713844 C-27.23955757 36.11177375 -27.2326687 32.91666213 -27.22271729 29.72131348 C-27.22717873 28.80038579 -27.23164017 27.87945811 -27.23623681 26.93062353 C-27.18797048 18.91814535 -26.74918454 10.88750991 -20.85754395 4.9671936 C-15.03166983 0.12845743 -7.23505355 -0.0507413 0 0 Z M-6.96875 20.3984375 C-6.96875 100.5884375 -6.96875 180.7784375 -6.96875 263.3984375 C5.24125 263.3984375 17.45125 263.3984375 30.03125 263.3984375 C30.03125 183.2084375 30.03125 103.0184375 30.03125 20.3984375 C17.82125 20.3984375 5.61125 20.3984375 -6.96875 20.3984375 Z " fill="#000000" transform="translate(287.96875,242.6015625)"/>
</svg>
